<mxfile host="app.diagrams.net" modified="2021-02-23T03:22:45.205Z" agent="5.0 (Macintosh; Intel Mac OS X 11_1_0) AppleWebKit/537.36 (KHTML, like Gecko) Chrome/88.0.4324.182 Safari/537.36" etag="g44pDr6YXbBX_YZvAhxh" version="14.4.2" type="github">
  <diagram id="C5RBs43oDa-KdzZeNtuy" name="Page-1">
    <mxGraphModel dx="834" dy="564" grid="1" gridSize="10" guides="1" tooltips="1" connect="1" arrows="1" fold="1" page="1" pageScale="1" pageWidth="827" pageHeight="1169" math="0" shadow="0">
      <root>
        <mxCell id="WIyWlLk6GJQsqaUBKTNV-0" />
        <mxCell id="WIyWlLk6GJQsqaUBKTNV-1" parent="WIyWlLk6GJQsqaUBKTNV-0" />
        <mxCell id="O19LlA_EWWU9SqFf5s5t-0" value="" style="rounded=1;whiteSpace=wrap;html=1;arcSize=2;" vertex="1" parent="WIyWlLk6GJQsqaUBKTNV-1">
          <mxGeometry x="40" y="30" width="670" height="580" as="geometry" />
        </mxCell>
        <mxCell id="O19LlA_EWWU9SqFf5s5t-1" value="" style="rounded=1;whiteSpace=wrap;html=1;arcSize=9;" vertex="1" parent="WIyWlLk6GJQsqaUBKTNV-1">
          <mxGeometry x="50" y="40" width="190" height="70" as="geometry" />
        </mxCell>
        <mxCell id="O19LlA_EWWU9SqFf5s5t-2" value="" style="rounded=1;whiteSpace=wrap;html=1;arcSize=9;" vertex="1" parent="WIyWlLk6GJQsqaUBKTNV-1">
          <mxGeometry x="250" y="40" width="450" height="70" as="geometry" />
        </mxCell>
        <mxCell id="O19LlA_EWWU9SqFf5s5t-3" value="" style="rounded=1;whiteSpace=wrap;html=1;arcSize=5;" vertex="1" parent="WIyWlLk6GJQsqaUBKTNV-1">
          <mxGeometry x="50" y="114" width="190" height="486" as="geometry" />
        </mxCell>
        <mxCell id="O19LlA_EWWU9SqFf5s5t-4" value="" style="ellipse;whiteSpace=wrap;html=1;aspect=fixed;" vertex="1" parent="WIyWlLk6GJQsqaUBKTNV-1">
          <mxGeometry x="60" y="50" width="40" height="40" as="geometry" />
        </mxCell>
        <mxCell id="O19LlA_EWWU9SqFf5s5t-5" value="" style="verticalLabelPosition=bottom;html=1;verticalAlign=top;align=center;strokeColor=none;fillColor=#00BEF2;shape=mxgraph.azure.user;" vertex="1" parent="WIyWlLk6GJQsqaUBKTNV-1">
          <mxGeometry x="70.5" y="60" width="19" height="20" as="geometry" />
        </mxCell>
        <mxCell id="O19LlA_EWWU9SqFf5s5t-6" value="" style="ellipse;whiteSpace=wrap;html=1;aspect=fixed;" vertex="1" parent="WIyWlLk6GJQsqaUBKTNV-1">
          <mxGeometry x="130" y="60" width="20" height="20" as="geometry" />
        </mxCell>
        <mxCell id="O19LlA_EWWU9SqFf5s5t-7" value="" style="whiteSpace=wrap;html=1;shape=mxgraph.basic.rectCallout;dx=20;dy=7;boundedLbl=1;" vertex="1" parent="WIyWlLk6GJQsqaUBKTNV-1">
          <mxGeometry x="164" y="60" width="26.67" height="20" as="geometry" />
        </mxCell>
        <mxCell id="O19LlA_EWWU9SqFf5s5t-8" value="..." style="text;html=1;strokeColor=none;fillColor=none;align=center;verticalAlign=middle;whiteSpace=wrap;rounded=0;rotation=90;" vertex="1" parent="WIyWlLk6GJQsqaUBKTNV-1">
          <mxGeometry x="200" y="60" width="40" height="20" as="geometry" />
        </mxCell>
        <mxCell id="O19LlA_EWWU9SqFf5s5t-9" value="" style="rounded=1;whiteSpace=wrap;html=1;" vertex="1" parent="WIyWlLk6GJQsqaUBKTNV-1">
          <mxGeometry x="60" y="120" width="170" height="30" as="geometry" />
        </mxCell>
        <mxCell id="O19LlA_EWWU9SqFf5s5t-10" value="&lt;font style=&quot;font-size: 9px&quot;&gt;Search or start a new chat&lt;/font&gt;" style="text;html=1;strokeColor=none;fillColor=none;align=center;verticalAlign=middle;whiteSpace=wrap;rounded=0;" vertex="1" parent="WIyWlLk6GJQsqaUBKTNV-1">
          <mxGeometry x="72" y="123" width="160" height="20" as="geometry" />
        </mxCell>
        <mxCell id="O19LlA_EWWU9SqFf5s5t-11" value="" style="image;html=1;image=img/lib/clip_art/computers/Data_Filtering_128x128.png" vertex="1" parent="WIyWlLk6GJQsqaUBKTNV-1">
          <mxGeometry x="72" y="125" width="20" height="20" as="geometry" />
        </mxCell>
        <mxCell id="O19LlA_EWWU9SqFf5s5t-12" value="&lt;b&gt;&lt;font style=&quot;font-size: 20px&quot;&gt;Add New Chat&lt;/font&gt;&lt;/b&gt;" style="text;html=1;strokeColor=none;fillColor=none;align=center;verticalAlign=middle;whiteSpace=wrap;rounded=0;" vertex="1" parent="WIyWlLk6GJQsqaUBKTNV-1">
          <mxGeometry x="38" y="160" width="180" height="20" as="geometry" />
        </mxCell>
        <mxCell id="O19LlA_EWWU9SqFf5s5t-13" value="" style="rounded=1;whiteSpace=wrap;html=1;arcSize=5;" vertex="1" parent="WIyWlLk6GJQsqaUBKTNV-1">
          <mxGeometry x="250" y="540" width="450" height="60" as="geometry" />
        </mxCell>
        <mxCell id="O19LlA_EWWU9SqFf5s5t-14" value="" style="verticalLabelPosition=bottom;verticalAlign=top;html=1;shape=mxgraph.basic.smiley" vertex="1" parent="WIyWlLk6GJQsqaUBKTNV-1">
          <mxGeometry x="260" y="555" width="30" height="30" as="geometry" />
        </mxCell>
        <mxCell id="O19LlA_EWWU9SqFf5s5t-15" value="" style="rounded=1;whiteSpace=wrap;html=1;arcSize=50;" vertex="1" parent="WIyWlLk6GJQsqaUBKTNV-1">
          <mxGeometry x="300" y="555" width="350" height="30" as="geometry" />
        </mxCell>
        <mxCell id="O19LlA_EWWU9SqFf5s5t-16" value="" style="dashed=0;aspect=fixed;verticalLabelPosition=bottom;verticalAlign=top;align=center;shape=mxgraph.gmdl.voice;strokeColor=#737373;fillColor=#737373;shadow=0;strokeWidth=2;" vertex="1" parent="WIyWlLk6GJQsqaUBKTNV-1">
          <mxGeometry x="670" y="560" width="12" height="20" as="geometry" />
        </mxCell>
      </root>
    </mxGraphModel>
  </diagram>
</mxfile>
